<?xml version="1.0" encoding="UTF-8"?>
<svg id="Layer_2" data-name="Layer 2" xmlns="http://www.w3.org/2000/svg" viewBox="0 0 821.52 630.89">
  <defs>
    <style>
      .cls-1 {
        fill: #284d91;
      }

      .cls-2, .cls-3 {
        stroke-linecap: round;
      }

      .cls-2, .cls-3, .cls-4 {
        fill: none;
        stroke: #284d91;
      }

      .cls-2, .cls-4 {
        stroke-miterlimit: 10;
      }

      .cls-3 {
        stroke-linejoin: round;
        stroke-width: .5px;
      }
    </style>
  </defs>
  <g id="Layer_3" data-name="Layer 3">
    <g>
      <g>
        <polygon class="cls-1" points="257.25 322.75 257.25 322.8 76.19 322.8 76.19 583.56 76.21 583.56 254.02 583.56 .76 630.4 .5 630.4 .5 73.08 253.14 120.59 75.4 120.59 75.4 269.71 75.6 269.71 257.11 269.71 257.25 269.71 257.25 322.75"/>
        <g>
          <line class="cls-4" x1="254.02" y1="583.56" x2=".76" y2="630.4"/>
          <line class="cls-4" x1=".5" y1="73.08" x2=".5" y2="630.4"/>
          <line class="cls-4" x1="76.21" y1="583.56" x2="254.02" y2="583.56"/>
          <line class="cls-4" x1="76.19" y1="322.8" x2="76.19" y2="583.56"/>
          <line class="cls-4" x1="76.19" y1="322.8" x2="257.25" y2="322.8"/>
          <line class="cls-4" x1="257.25" y1="269.71" x2="257.25" y2="322.75"/>
          <line class="cls-4" x1="75.6" y1="269.71" x2="257.11" y2="269.71"/>
          <line class="cls-4" x1="75.4" y1="120.59" x2="75.4" y2="269.71"/>
          <line class="cls-4" x1="75.4" y1="120.59" x2="253.14" y2="120.59"/>
          <line class="cls-4" x1=".5" y1="73.08" x2="253.14" y2="120.59"/>
        </g>
      </g>
      <g>
        <polygon class="cls-1" points="821.27 73.08 821.27 630.4 821.02 630.4 567.75 583.56 567.75 583.41 746.61 583.41 746.61 120.83 568.88 120.83 568.83 120.55 821.27 73.08"/>
        <g>
          <line class="cls-3" x1="567.75" y1="583.56" x2="821.02" y2="630.4"/>
          <line class="cls-3" x1="821.27" y1="73.08" x2="821.27" y2="630.4"/>
          <line class="cls-3" x1="746.61" y1="583.41" x2="567.75" y2="583.41"/>
          <polyline class="cls-3" points="821.27 73.08 568.83 120.55 568.63 120.59"/>
          <line class="cls-3" x1="746.61" y1="120.83" x2="568.88" y2="120.83"/>
          <line class="cls-3" x1="746.61" y1="120.83" x2="746.61" y2="583.41"/>
        </g>
      </g>
      <g>
        <polygon class="cls-1" points="542.46 120.25 543.46 581.34 543.34 581.66 466.62 581.66 459.42 142.35 406.81 537.74 406.37 537.74 362.32 143.18 362.32 582.15 362.18 582.24 285.26 582.24 285.26 120.25 413.22 .6 413.71 .5 542.35 120.14 542.46 120.25"/>
        <g>
          <line class="cls-2" x1="285.26" y1="120.25" x2="285.26" y2="582.24"/>
          <line class="cls-2" x1="285.26" y1="582.24" x2="362.18" y2="582.24"/>
          <line class="cls-2" x1="362.32" y1="143.18" x2="362.32" y2="582.15"/>
          <line class="cls-2" x1="459.42" y1="142.35" x2="466.62" y2="581.66"/>
          <line class="cls-2" x1="362.32" y1="143.18" x2="406.37" y2="537.74"/>
          <line class="cls-2" x1="459.42" y1="142.35" x2="406.81" y2="537.74"/>
          <line class="cls-2" x1="466.62" y1="581.66" x2="543.34" y2="581.66"/>
          <line class="cls-2" x1="542.46" y1="120.25" x2="543.46" y2="581.34"/>
          <line class="cls-2" x1="285.26" y1="120.25" x2="413.22" y2=".6"/>
          <line class="cls-2" x1="542.35" y1="120.14" x2="413.71" y2=".5"/>
        </g>
      </g>
    </g>
  </g>
</svg>